<svg xmlns="http://www.w3.org/2000/svg" xmlns:xlink="http://www.w3.org/1999/xlink" version="1.1" x="0px" y="0px" viewBox="0 0 100 125" enable-background="new 0 0 100 100" xml:space="preserve"><g><path fill="none" d="M67.807,8.535c0-1.279-1.037-2.318-2.316-2.318H34.509c-1.279,0-2.318,1.04-2.318,2.318v9.725h35.616V8.535z"/><path fill="none" d="M75.934,84.288c6.301,0,11.43-5.128,11.43-11.431v-40.21c0-6.301-5.129-11.429-11.43-11.429h-5.17h-41.53   h-5.168c-6.303,0-11.43,5.128-11.43,11.429v40.21c0,6.303,5.127,11.431,11.43,11.431H75.934z M62.256,43.885   c2.291,0,4.152,1.86,4.152,4.152c0,2.293-1.861,4.153-4.152,4.153c-2.293,0-4.152-1.86-4.152-4.153   C58.104,45.745,59.963,43.885,62.256,43.885z M60.84,62.888c0.676-0.671,1.768-0.67,2.441,0.005   c0.672,0.675,0.668,1.769-0.008,2.439c-3.643,3.633-8.434,5.449-13.223,5.449c-4.79,0-9.579-1.816-13.226-5.449   c-0.675-0.671-0.678-1.765-0.005-2.439s1.765-0.676,2.439-0.005C45.21,68.815,54.891,68.815,60.84,62.888z M37.744,43.885   c2.294,0,4.152,1.86,4.152,4.152c0,2.293-1.858,4.153-4.152,4.153c-2.293,0-4.151-1.86-4.151-4.153   C33.592,45.745,35.451,43.885,37.744,43.885z"/><rect x="26.566" y="87.244" fill="none" width="46.866" height="5.883"/><path d="M76.393,96.084v-2.957v-3.429v-2.466c7.721-0.242,13.928-6.596,13.928-14.375v-40.21c0-7.932-6.455-14.387-14.387-14.387   h-5.17V8.535c0-2.909-2.367-5.275-5.273-5.275H34.509c-2.909,0-5.275,2.366-5.275,5.275v9.725h-5.168   c-7.933,0-14.387,6.455-14.387,14.387v40.21c0,7.779,6.208,14.133,13.929,14.375v2.466v3.429v2.957H76.393z M73.432,93.127H26.566   v-5.883h46.866V93.127z M32.191,8.535c0-1.279,1.039-2.318,2.318-2.318H65.49c1.279,0,2.316,1.04,2.316,2.318v9.725H32.191V8.535z    M12.636,72.857v-40.21c0-6.301,5.127-11.429,11.43-11.429h5.168h41.53h5.17c6.301,0,11.43,5.128,11.43,11.429v40.21   c0,6.303-5.129,11.431-11.43,11.431H24.066C17.763,84.288,12.636,79.16,12.636,72.857z"/><circle cx="37.744" cy="48.038" r="4.153"/><circle cx="62.256" cy="48.038" r="4.153"/><path d="M36.82,62.893c-0.673,0.675-0.67,1.769,0.005,2.439c3.646,3.633,8.436,5.449,13.226,5.449c4.79,0,9.581-1.816,13.223-5.449   c0.676-0.671,0.68-1.765,0.008-2.439c-0.674-0.675-1.766-0.676-2.441-0.005c-5.949,5.928-15.629,5.928-21.581,0   C38.584,62.217,37.493,62.218,36.82,62.893z"/></g></svg>